<svg width="184" height="133" viewBox="0 0 184 133" fill="none" xmlns="http://www.w3.org/2000/svg">
<path d="M56.5273 109.657C43.246 102.815 17.6207 87.2548 21.3707 79.7485C25.1208 72.2421 50.4926 86.9812 62.0161 95.5822C44.0671 76.2298 36.2346 21.6915 92.27 17C145.22 17 145.22 73.2977 122.368 97.3415C133.111 87.5676 156.958 71.6557 162.583 76.8163C168.208 81.9769 147.348 99.2963 136.215 107.311" stroke="black" stroke-width="4"/>
<path d="M71.3912 52.186C73.3329 52.186 74.9069 50.6108 74.9069 48.6674C74.9069 46.7241 73.3329 45.1488 71.3912 45.1488C69.4495 45.1488 67.8755 46.7241 67.8755 48.6674C67.8755 50.6108 69.4495 52.186 71.3912 52.186Z" fill="black"/>
<path d="M105.376 52.186C107.318 52.186 108.892 50.6108 108.892 48.6674C108.892 46.7241 107.318 45.1488 105.376 45.1488C103.434 45.1488 101.86 46.7241 101.86 48.6674C101.86 50.6108 103.434 52.186 105.376 52.186Z" fill="black"/>
<path d="M84.5567 60.3961C82.2128 66.8469 95.6896 68.0198 93.9317 60.3961" stroke="black" stroke-width="3" stroke-linecap="round"/>
<path d="M110.44 99.4482L94.6193 116.455L85.4539 109.07L77.9231 102.014C71.9772 94.9767 77.7353 89.2207 81.3523 89.1314C84.2592 89.0597 90.2281 92.631 93.1577 94.9767C96.0875 92.0446 99.1896 85.8428 105.752 87.7194C112.315 89.596 112.993 94.9767 110.44 99.4482Z" stroke="black" stroke-width="4" stroke-linecap="round"/>
</svg>
